<?xml version="1.0" encoding="utf-8"?>
<!-- Generator: Adobe Illustrator 19.1.0, SVG Export Plug-In . SVG Version: 6.00 Build 0)  -->
<svg version="1.1" xmlns="http://www.w3.org/2000/svg" xmlns:xlink="http://www.w3.org/1999/xlink" x="0px" y="0px"
	 viewBox="0 0 1024 1024" style="enable-background:new 0 0 1024 1024;" xml:space="preserve">
<style type="text/css">
	.st0{fill:#FFFFFF;}
	.st1{fill:#FFFFFF;stroke:#FFFFFF;stroke-width:40;stroke-linejoin:round;stroke-miterlimit:10;}
</style>
<g id="Layer_2">
</g>
<g id="Layer_1">
	<g>
		<path class="st0" d="M160.1,708.1h33.4c15.3,0,27.8,6.8,27.8,25c0,12.6-4.9,20.3-15.2,23.5v0.3c11.3,2,18.5,8.8,18.5,26.3
			c0,17.2-12.5,28.2-31.9,28.2h-32.7V708.1z M189.6,751.6c10,0,15.2-6.7,15.2-16.4c0-12.3-7.4-14.8-16.6-14.8h-11.6v31.1H189.6z
			 M192.9,799c9.8,0,15.2-6.4,15.2-18.2c0-11.1-6.7-17.5-16.2-17.5h-15.3V799H192.9z"/>
		<path class="st0" d="M253,708.1v74.1c0,13,5.2,18.8,15.2,18.8c9.8,0,15.1-5.8,15.1-18.8v-74.1h16.5v72.8
			c0,23.9-11.9,32.6-31.6,32.6c-19.8,0-31.7-8.7-31.7-32.6v-72.8H253z"/>
		<path class="st0" d="M333.1,771l-26.6-63h18.4l17.4,44.6l17.8-44.6h17.2l-27.7,63v40.4h-16.5V771z"/>
		<path class="st0" d="M431.5,721.9h-24.6v-13.9h65.3v13.9H448v89.5h-16.5V721.9z"/>
		<path class="st0" d="M481.6,708.1h16.5v41.4h30.4v-41.4H545v103.4h-16.5v-48.1h-30.4v48.1h-16.5V708.1z"/>
		<path class="st0" d="M562.1,708.1H618v13.9h-39.4v28.7h37.1v13.9h-37.1v33h40.5v13.9h-57V708.1z"/>
		<path class="st0" d="M631.7,708.1h25.8l18.2,76.6h0.3l18-76.6h25.2v103.4h-15.6v-86h-0.3l-20.8,86h-13.9l-20.8-86h-0.3v86h-15.6
			V708.1z"/>
		<path class="st0" d="M736.2,708.1h55.9v13.9h-39.4v28.7h37.1v13.9h-37.1v33h40.5v13.9h-57V708.1z"/>
		<path class="st0" d="M818.6,779.4v2.6c0,12.6,5.5,19,16.9,19c10.4,0,15.6-7.4,15.6-15.1c0-10.9-5.5-15.6-14.8-18.4l-11.3-3.9
			c-15.1-5.8-21.6-13.6-21.6-28.4c0-18.8,12.7-29.2,32.1-29.2c26.5,0,29.2,16.5,29.2,27.2v2.3h-16.5v-2.2c0-9.4-4.2-14.9-14.5-14.9
			c-7.1,0-13.9,3.9-13.9,14.9c0,8.8,4.5,13.3,15.5,17.5l11.1,4.1c14.6,5.2,21,13.2,21,27.4c0,22-13.3,31.1-34.2,31.1
			c-25.6,0-31.4-17.1-31.4-31.6v-2.5H818.6z"/>
	</g>
	<polygon class="st1" points="512,215.7 566.1,325.4 687.2,343 599.6,428.4 620.3,548.9 512,492 403.7,548.9 424.4,428.4 336.8,343 
		457.9,325.4 	"/>
</g>
</svg>
